Format : RealMedia
File size : 695 MiB
Duration : 2h 1mn
Overall bit rate : 785 Kbps

Video
ID : 0
Format : RealVideo 4
Codec ID : RV40
Codec ID/Info : Based on AVC (H.264), Real Player 9
Duration : 2h 1mn
Bit rate : 688 Kbps
Width : 1 280 pixels
Height : 720 pixels
Display aspect ratio : 16:9
Frame rate : 23.976 fps
Bits/(Pixel*Frame) : 0.031
Stream size : 599 MiB (86%)

Audio
ID : 1
Format : Cooker
Codec ID : cook
Codec ID/Info : Based on G.722.1, Real Player 6
Duration : 2h 1mn
Bit rate : 96.5 Kbps
Channel(s) : 2 channels
Sampling rate : 44.1 KHz
Bit depth : 16 bits
Stream size : 84.0 MiB (12%)

Screen Shots
 
http://img1.uploadscreenshot.com/images/orig/12/35914292041-orig.jpg
 
http://img1.uploadscreenshot.com/images/orig/12/35914294358-orig.jpg
 
http://img1.uploadscreenshot.com/images/orig/12/35914412991-orig.jpg